<?xml version="1.0" encoding="utf-8"?>
<svg version="1.1" xmlns:xlink="http://www.w3.org/1999/xlink" width="22px" height="20px" xmlns="http://www.w3.org/2000/svg">
  <g transform="matrix(1 0 0 1 -663 -11 )">
    <path d="M 16.7194621953125 10.46279021875  L 9.6905477890625 10.46279021875  C 9.116185203125 10.46279021875  8.652291734375 9.99887275  8.652291734375 9.4245101640625  C 8.652291734375 8.850291484375  9.116185203125 8.386398015625  9.6905477890625 8.386398015625  L 16.7194621953125 8.386398015625  C 17.29382478125 8.386398015625  17.75774225 8.850291484375  17.75774225 9.4245101640625  C 17.75774225 9.9988727734375  17.2893878046875 10.46279021875  16.7194621953125 10.46279021875  Z M 16.7194621953125 14.5715165078125  L 9.6905477890625 14.5715165078125  C 9.116185203125 14.5715165078125  8.652291734375 14.1076230390625  8.652291734375 13.533236453125  C 8.652291734375 12.95889784375  9.116185203125 12.4951003046875  9.6905477890625 12.4951003046875  L 16.7194621953125 12.4951003046875  C 17.29382478125 12.4951003046875  17.75774225 12.95889784375  17.75774225 13.533236453125  C 17.75774225 14.107647015625  17.2893878046875 14.5715165078125  16.7194621953125 14.5715165078125  Z M 21.4908831875 17.9644960703125  L 21.4908831875 4.8343343125  C 21.4908831875 3.239415671875  20.0373726640625 3.3896498125  20.0373726640625 3.3896498125  C 20.0373726640625 3.3896498125  11.3605355703125 3.3984998125  11.8244290390625 3.3896498125  C 11.3295485703125 3.3984998125  11.0776953359375 3.1289705546875  11.0776953359375 3.1289705546875  C 11.0776953359375 3.1289705546875  10.733216890625 2.5325908984375  10.1101913046875 1.5959539375  C 9.4607836015625 0.6107259296875  8.705295828125 0.7698580234375  8.705295828125 0.7698580234375  L 2.316987078125 0.769858046875  C 0.545404203125 0.769858046875  0.527704203125 2.475125875  0.527704203125 2.475125875  L 0.527704203125 17.880600953125  C 0.527704203125 19.7803289453125  1.963538703125 19.5461517109375  1.963538703125 19.5461517109375  L 20.16990678125 19.5461517109375  C 21.7073603984375 19.546127734375  21.4908831875 17.9644960703125  21.4908831875 17.9644960703125  Z M 20 17.1868952734375  L 20.1876068046875 17.1868952734375  C 20.1876068046875 17.7745448359375  19.7148633359375 18.2473123046875  19.1273336796875 18  L 2.891373640625 18  C 2.303700078125 18.247312328125  1.8309805859375 17.774544859375  2 17.186895296875  L 2 6.1950757421875  C 1.8309805859375 5.6074741328125  2.303700078125 5.1347306640625  2.891373640625 5.1347306640625  L 19.12733365625 5.1347306640625  C 19.7148633125 5.1347306640625  20.18760678125 5.6074741328125  20 6.1950757421875  L 20 17.1868952734375  Z M 4.724762609375 9.4245101875  C 4.724762609375 10.037078875  5.221178046875 10.5334463359375  5.83365078125 10.5334463359375  C 6.4460755625 10.5334463359375  6.942538953125 10.037078875  6.942538953125 9.4245101875  C 6.942538953125 8.8121333828125  6.4460755625 8.315741921875  5.83365078125 8.315741921875  C 5.2212020234375 8.315741921875  4.724762609375 8.8121333828125  4.724762609375 9.4245101875  Z M 4.724762609375 13.5332364765625  C 4.724762609375 14.145685234375  5.221178046875 14.642172625  5.83365078125 14.642172625  C 6.4460755625 14.642172625  6.942538953125 14.145685234375  6.942538953125 13.5332364765625  C 6.942538953125 12.9208116953125  6.4460755625 12.42437228125  5.83365078125 12.42437228125  C 5.2212020234375 12.42437228125  4.724762609375 12.9208116953125  4.724762609375 13.5332364765625  Z " fill-rule="nonzero" fill="#cccccc" stroke="none" transform="matrix(1 0 0 1 663 11 )" />
  </g>
</svg>