<?xml version="1.0" encoding="utf-8"?>
<svg version="1.1" xmlns:xlink="http://www.w3.org/1999/xlink" width="14px" height="13px" xmlns="http://www.w3.org/2000/svg">
  <g transform="matrix(1 0 0 1 -25 -15 )">
    <path d="M 13.5702253984375 9.148559265625  C 13.7322835234375 7.16246584375  13.0208298671875 6.6291394375  12.0480733984375 5.9830175078125  C 12.08225021875 3.7069606796875  11.40804334375 1.8163225234375  10.543213703125 0.3384925  L 3.5182806015625 0.3384925  C 2.6534509609375 1.8163225234375  1.9792440625 3.7069606796875  2.0133729296875 5.9830175078125  C 1.040592484375 6.6291394375  0.329138851562501 7.16246584375  0.4912449296875 9.148559265625  C 0.653446960937501 11.1346287109375  2.225293234375 12.479301015625  2.9398887578125 12.378857125  C 3.324587921875 12.3247738046875  3.4493513359375 11.7566709765625  3.4493513359375 11.7566709765625  L 3.6955444140625 10.727792546875  C 3.6955444140625 10.727792546875  3.811313921875 10.9086778984375  3.978504578125 11.1507457890625  L 10.0829417734375 11.1507457890625  C 10.2501324296875 10.908677921875  10.3659019375 10.727792546875  10.3659019375 10.727792546875  L 10.612095015625 11.7566709765625  C 10.612095015625 11.7566709765625  10.73784175 12.3555449453125  11.1216775234375 12.378857125  C 11.84186125 12.4226034765625  13.408023390625 11.1346287109375  13.5702253984375 9.148559265625  Z M 9.311312921875 3.6004249140625  C 9.1319145625 5.867895578125  7.1801898203125 5.9390553203125  7.0306991875 5.9411898671875  C 6.8813524375 5.9390313203125  4.9296516953125 5.8678955546875  4.75013340625 3.6004249140625  C 4.8154890859375 1.444766453125  6.8770353671875 1.2544554765625  7.0306991875 1.243159140625  C 7.1844109609375 1.2544554765625  9.246053171875 1.444766453125  9.311312921875 3.6004249140625  Z " fill-rule="nonzero" fill="#999999" stroke="none" transform="matrix(1 0 0 1 25 15 )" />
  </g>
</svg>